<?xml version="1.0" encoding="utf-8"?>
<!-- Generator: Adobe Illustrator 23.0.3, SVG Export Plug-In . SVG Version: 6.00 Build 0)  -->
<svg version="1.1" xmlns="http://www.w3.org/2000/svg" xmlns:xlink="http://www.w3.org/1999/xlink" x="0px" y="0px"
	 viewBox="0 0 519.8 519.8" style="enable-background:new 0 0 519.8 519.8;" xml:space="preserve">
<style type="text/css">
	.st0{fill:#002D56;}
</style>
<g id="Layer_2">
</g>
<g id="Layer_1">
	<g>
		<path class="st0" d="M259.9,0C116.6,0,0,116.6,0,259.9s116.6,259.9,259.9,259.9c143.3,0,259.9-116.6,259.9-259.9S403.2,0,259.9,0z
			 M259.9,502.6c-133.8,0-242.7-108.9-242.7-242.7c0-133.8,108.9-242.7,242.7-242.7c133.8,0,242.7,108.9,242.7,242.7
			C502.6,393.7,393.7,502.6,259.9,502.6z"/>
		<path class="st0" d="M426.7,93.1C382.1,48.6,322.9,24,259.9,24c-63,0-122.2,24.5-166.8,69.1C48.6,137.7,24,196.9,24,259.9
			c0,63,24.5,122.2,69.1,166.8c44.5,44.5,103.8,69.1,166.8,69.1c63,0,122.2-24.5,166.8-69.1c44.5-44.5,69.1-103.8,69.1-166.8
			C495.7,196.9,471.2,137.7,426.7,93.1z M259.9,491.5c-127.7,0-231.6-103.9-231.6-231.6S132.2,28.3,259.9,28.3
			c127.7,0,231.6,103.9,231.6,231.6S387.6,491.5,259.9,491.5z"/>
		<path class="st0" d="M260.7,93.1c-93.5,0-169.3,75.8-169.3,169.3c0,93.5,75.8,169.3,169.3,169.3S430,356,430,262.4
			C430,168.9,354.2,93.1,260.7,93.1z M260.7,420.5c-87.2,0-158.1-70.9-158.1-158.1c0-87.2,70.9-158.1,158.1-158.1
			c87.2,0,158.1,70.9,158.1,158.1C418.8,349.6,347.9,420.5,260.7,420.5z"/>
		<path class="st0" d="M334.5,257c0-14.8-1.9-27.5-5.6-38.3c-3.7-10.8-8.9-19.7-15.6-26.7c-6.7-7-14.5-12.2-23.5-15.6
			c-9-3.4-18.7-5.1-29.2-5.1c-10.3,0-20,1.7-29,5.1c-9,3.4-16.8,8.6-23.5,15.6c-6.7,7-11.9,15.9-15.6,26.7
			c-3.7,10.8-5.6,23.5-5.6,38.3c0,14.8,1.9,27.6,5.6,38.3c3.7,10.8,8.9,19.7,15.6,26.7c6.7,7,14.5,12.2,23.5,15.6
			c9,3.4,18.7,5.1,29,5.1c10.5,0,20.3-1.7,29.2-5.1c9-3.4,16.8-8.6,23.5-15.6c6.7-7,11.9-15.9,15.6-26.7
			C332.7,284.6,334.5,271.8,334.5,257z"/>
		<path class="st0" d="M260.7,109.9c-84.1,0-152.5,68.4-152.5,152.5S176.6,415,260.7,415c22.4,0,43.7-4.9,62.9-13.6
			c-4.5-4.5-18.6-18.5-23.5-22.9c-10-8.9-20.6-17.9-31.8-27c-0.9,0.2-2.2,0.3-4,0.3h-3.7c-14.6,0-28-2-40.3-6
			c-12.3-4-22.8-10.1-31.6-18.3c-8.8-8.2-15.7-18.2-20.6-30c-4.9-11.8-7.3-25.3-7.3-40.5c0-15.1,2.4-28.6,7.3-40.5
			c4.9-11.8,11.8-21.9,20.6-30c8.8-8.2,19.4-14.4,31.6-18.7c12.3-4.3,25.7-6.4,40.3-6.4c14.8,0,28.3,2.1,40.6,6.4
			c12.3,4.3,22.8,10.5,31.6,18.7c8.8,8.2,15.7,18.2,20.6,30c4.9,11.8,7.3,25.3,7.3,40.5c0,12.5-1.7,23.8-5.1,34.1
			c-3.4,10.2-8.1,19.3-14.3,27.2c-6.1,7.9-13.5,14.5-22.2,19.6c-8.6,5.2-18.3,8.7-29,10.7c9.6,7.7,19.4,15.3,29.2,23
			c4.5,3.5,22.2,16.2,25,18.2c41.4-27.3,68.8-74.2,68.8-127.4C413.2,178.3,344.8,109.9,260.7,109.9z"/>
		<path class="st0" d="M100.5,173.5c2-1.9,3.7-4.1,5.2-6.8c1.1-2,2.1-4.2,3-6.5c0.8-2.3,1.5-4.6,2.1-7c-0.3-0.1-0.8-0.3-1.5-0.7
			c-0.7-0.4-1.4-0.8-2.2-1.2l-1.5-0.9c-0.7-0.4-1.5-0.9-2.3-1.3c-0.8-0.5-1.6-0.9-2.3-1.4c-0.7-0.4-1.3-0.8-1.9-1.2
			c-0.5-0.4-0.9-0.6-1.1-0.8c-0.1,0.3-0.3,0.8-0.6,1.4c-0.3,0.6-0.7,1.4-1.3,2.5c-0.5,1-1,1.7-1.3,2.2c-0.3,0.5-0.6,0.9-0.9,1.1
			c0.5,0.2,1.3,0.6,2.5,1.2c1.2,0.6,3.1,1.6,5.6,3c0.7,0.4,1.3,0.7,1.8,1.1c0.5,0.3,1,0.6,1.3,0.9c0,0.3,0,0.6-0.1,1.1
			c-0.1,0.5-0.3,1-0.5,1.5c-0.2,0.5-0.4,1-0.7,1.6c-0.2,0.5-0.5,1-0.7,1.4c-1,1.8-2.2,3.2-3.7,4.2c-1.4,1-3,1.7-4.7,2
			c-1.7,0.3-3.5,0.3-5.4-0.1c-1.9-0.4-3.7-1.1-5.6-2.1c-2.4-1.4-4.4-2.9-5.8-4.6c-1.4-1.7-2.4-3.4-3-5.2c-0.6-1.8-0.8-3.5-0.6-5.3
			c0.2-1.7,0.7-3.3,1.5-4.8c1.2-2.1,2.6-3.7,4.3-4.7c1.7-1,3.5-1.6,5.5-1.8l0.4-0.7c-0.7-0.6-1.4-1.2-2-1.9c-0.6-0.7-1.3-1.3-2-2
			c-1.8,1.2-3.5,2.5-4.9,3.9c-1.4,1.5-2.8,3.4-4.1,5.7c-1.5,2.7-2.6,5.5-3.2,8.2c-0.6,2.8-0.6,5.4-0.1,8c0.5,2.5,1.6,4.9,3.3,7.1
			c1.7,2.2,4,4.2,6.9,5.8c2.4,1.3,4.8,2.1,7.2,2.2c2.4,0.2,4.8-0.2,7-1.1C96.4,176.8,98.6,175.4,100.5,173.5z"/>
		<path class="st0" d="M99.6,128.1c0.7,0.7,1.4,1.3,2,1.9c0.6,0.6,1.3,1.3,2,1.9c0.7,0.7,1.5,1.4,2.3,2.1c0.8,0.8,1.7,1.6,2.8,2.6
			c1.8,1.7,3.7,2.9,5.5,3.5c1.9,0.6,3.7,0.7,5.5,0.4c1.8-0.3,3.6-1,5.3-2.1c1.7-1.1,3.3-2.5,4.9-4.2c3.5-3.8,5.2-7.5,5.1-11.3
			c-0.1-3.8-2.5-7.8-7-12c-1.7-1.6-3.3-3.1-4.8-4.5c-1.5-1.5-2.8-2.8-4-4c-1.2-1.2-2.3-2.3-3.2-3.3c-0.9-0.9-1.6-1.7-2.2-2.3
			c-0.3,0.4-0.5,0.8-0.8,1.1c-0.3,0.3-0.5,0.7-0.9,1c-0.3,0.3-0.6,0.6-0.9,0.9c-0.4,0.3-0.7,0.6-1.1,0.9c1.9,1.6,3.7,3.2,5.6,4.8
			c1.8,1.6,3.6,3.2,5.4,4.9c1.8,1.7,3.5,3.4,5.1,5c1.6,1.7,2.8,3.3,3.7,5c0.9,1.7,1.3,3.3,1.2,4.9c0,1.6-0.8,3.2-2.2,4.8
			c-1.2,1.3-2.4,2.3-3.5,3c-1.2,0.7-2.4,1-3.8,1c-1.4-0.1-3-0.6-4.8-1.6c-1.8-1-3.8-2.6-6.2-4.8c-2.2-2.1-4.4-4.2-6.5-6.2
			c-2.1-2.1-4.3-4.4-6.6-7c-0.4,0.6-0.9,1.1-1.4,1.7c-0.5,0.6-0.9,1.1-1.4,1.7c-0.5,0.5-1,1-1.5,1.5c-0.5,0.5-1.1,1-1.6,1.5
			c0.7,0.6,1.7,1.4,3,2.6C95.8,124.5,97.5,126.1,99.6,128.1z"/>
		<path class="st0" d="M136.8,97.5l4.3,5.8c1.8,2.4,3.3,4.5,4.6,6.4c1.3,1.9,2.6,3.7,3.8,5.6c0.4-0.4,0.9-0.8,1.5-1.3
			c0.6-0.4,1.2-0.9,1.9-1.4c0.7-0.5,1.4-1,1.9-1.4c0.6-0.4,1.1-0.8,1.6-1.1c-1.4-1.7-2.9-3.4-4.3-5.2c-1.4-1.8-3-3.9-4.8-6.2
			l-4.3-5.8c-1.8-2.4-3.3-4.5-4.6-6.4c-1.3-1.9-2.6-3.8-3.9-5.7c-0.4,0.4-0.9,0.9-1.5,1.3c-0.5,0.5-1.2,1-1.9,1.5
			c-0.7,0.5-1.4,1-2,1.4c-0.6,0.4-1.2,0.7-1.7,1c1.5,1.8,3,3.5,4.4,5.3C133.4,93,135,95.1,136.8,97.5z"/>
		<path class="st0" d="M155.9,84.1l3.5,6.3c1.4,2.6,2.7,4.9,3.7,6.9c1,2,2,4.1,3,6.1c0.2-0.2,0.5-0.4,0.9-0.6
			c0.3-0.2,0.9-0.5,1.6-0.9c0.7-0.4,1.6-0.9,2.8-1.5c1.2-0.7,2.7-1.5,4.6-2.5c2.1-1.2,3.8-2.1,5.1-2.8c1.2-0.7,2.3-1.2,3.1-1.6
			c-0.2-0.2-0.3-0.4-0.5-0.6c-0.2-0.3-0.4-0.6-0.7-1.1c-0.3-0.5-0.5-0.9-0.6-1.2c-0.1-0.3-0.2-0.6-0.4-1c-1.7,1.2-3.4,2.4-5.1,3.4
			c-1.7,1.1-3.5,2.1-5.2,3.1c-0.7-1.2-1.5-2.6-2.4-4.3c-0.9-1.6-1.9-3.3-2.9-5.1l-3.5-6.3c-1.4-2.6-2.7-4.9-3.7-6.9
			c-1-2-2.1-4.1-3.1-6.2c-0.5,0.4-1,0.7-1.6,1.1c-0.6,0.4-1.3,0.8-2.1,1.2c-0.8,0.4-1.5,0.8-2.1,1.1c-0.6,0.3-1.3,0.6-1.8,0.8
			c1.2,2,2.4,3.9,3.6,5.9C153.2,79.2,154.5,81.5,155.9,84.1z"/>
		<path class="st0" d="M185.5,68.8l2.2,6.9c0.9,2.8,1.6,5.3,2.2,7.5c0.6,2.2,1.2,4.4,1.7,6.5c0.6-0.2,1.2-0.5,1.9-0.7
			c0.7-0.2,1.4-0.4,2.3-0.7c1.3-0.4,2.9-0.9,4.7-1.4c1.8-0.5,4-1.2,6.5-2c2.4-0.7,4.5-1.9,6.4-3.4c1.9-1.5,3.3-3.3,4.5-5.4
			c1.1-2.1,1.8-4.4,2-7c0.2-2.6-0.1-5.3-1-8.1c-1-3.2-2.3-5.7-3.9-7.6c-1.6-1.8-3.5-3.1-5.6-3.8c-2.1-0.7-4.5-1-7-0.7
			c-2.6,0.2-5.3,0.8-8.2,1.7c-2.2,0.7-4,1.3-5.4,1.8c-1.4,0.5-2.6,0.9-3.7,1.3c-0.8,0.3-1.6,0.5-2.3,0.6c-0.7,0.2-1.3,0.3-1.9,0.4
			c0.8,2.2,1.6,4.3,2.4,6.5C183.8,63.5,184.6,66,185.5,68.8z M191.9,54.6c0.7-0.3,1.7-0.6,3-1c1.8-0.5,3.5-0.7,5.1-0.5
			c1.6,0.2,3.1,0.7,4.5,1.6s2.6,2,3.7,3.5c1.1,1.5,1.9,3.3,2.6,5.4c1.6,5.3,1.8,9.6,0.3,12.9c-1.4,3.3-4.1,5.6-7.9,6.7
			c-1.1,0.3-1.9,0.6-2.7,0.8c-0.7,0.2-1.3,0.3-1.9,0.5c-0.1-0.2-0.2-0.8-0.5-1.6c-0.3-0.8-0.6-1.7-0.9-2.7l-0.9-3.1l-0.8-2.6
			l-2.8-9.1l-0.8-2.5l-0.9-3.1c-0.3-1-0.6-1.9-0.8-2.8c-0.2-0.8-0.4-1.3-0.5-1.6C190.4,55.2,191.2,54.9,191.9,54.6z"/>
		<path class="st0" d="M231.9,68.4c1.2,2.3,2.7,4.2,4.6,5.7c1.9,1.4,4,2.5,6.4,3.1c2.4,0.6,4.9,0.8,7.5,0.7c1.8,1.1,3.3,2,4.6,2.8
			c1.2,0.8,2.4,1.5,3.4,2.2c1,0.7,2,1.4,3,2.1c1,0.7,2.1,1.5,3.4,2.4c1.4-0.8,2.6-1.5,3.8-2.1c1.1-0.6,2.3-1,3.6-1.2
			c-0.8-0.3-1.8-0.8-2.9-1.3c-1.1-0.5-2.3-1.2-3.5-1.8c-1.2-0.7-2.5-1.4-3.9-2.1c-1.4-0.7-2.7-1.4-4.1-2.1c2.1-0.9,3.9-1.9,5.5-3.2
			c1.6-1.3,3-2.7,4-4.3c1.1-1.6,1.9-3.4,2.4-5.3c0.5-1.9,0.7-3.9,0.6-6c-0.2-3.2-0.8-6-2-8.3c-1.2-2.3-2.7-4.2-4.6-5.7
			c-1.9-1.5-4.1-2.5-6.6-3.2c-2.5-0.7-5.2-0.9-8-0.8c-3.1,0.2-5.9,0.8-8.3,1.9c-2.5,1.1-4.5,2.6-6.2,4.4c-1.7,1.8-3,3.9-3.8,6.3
			c-0.9,2.4-1.2,4.8-1.1,7.5C230.1,63.2,230.8,66,231.9,68.4z M239.1,53.5c0.4-2,1.1-3.8,2-5.4c0.9-1.5,2.1-2.8,3.5-3.7
			c1.4-0.9,3-1.5,4.8-1.6c1.7-0.1,3.3,0.2,4.8,0.8c1.5,0.6,2.7,1.5,3.8,2.8c1.1,1.2,1.9,2.7,2.6,4.5c0.7,1.8,1.1,3.8,1.2,6.2
			c0.2,2.9,0,5.4-0.6,7.6c-0.5,2.2-1.3,4-2.3,5.4c-1,1.4-2.2,2.5-3.6,3.3c-1.4,0.8-2.9,1.2-4.5,1.3c-1.5,0.1-2.9-0.1-4.3-0.6
			c-1.4-0.5-2.6-1.3-3.7-2.4c-1.1-1.1-2-2.7-2.7-4.6c-0.7-1.9-1.1-4.3-1.3-7.1C238.5,57.7,238.7,55.5,239.1,53.5z"/>
		<path class="st0" d="M285.1,75.7c1.2,1.4,2.7,2.5,4.6,3.3c1.8,0.9,3.9,1.5,6.1,1.9c5.1,1,9.1,0.4,12.3-1.7
			c3.1-2.1,5.3-6.2,6.5-12.3c0.4-2.3,0.9-4.4,1.4-6.4c0.5-2,0.9-3.9,1.3-5.6c0.4-1.7,0.8-3.2,1.1-4.4c0.3-1.3,0.6-2.3,0.8-3
			c-0.5,0-0.9,0-1.3-0.1c-0.4,0-0.9-0.1-1.3-0.2c-0.4-0.1-0.8-0.2-1.2-0.3c-0.4-0.1-0.9-0.3-1.4-0.5c-0.3,2.4-0.7,4.8-1.1,7.2
			c-0.4,2.4-0.8,4.8-1.3,7.2c-0.5,2.4-1,4.8-1.6,7c-0.6,2.2-1.4,4.1-2.3,5.8c-1,1.6-2.1,2.8-3.5,3.7c-1.4,0.8-3.1,1-5.2,0.6
			c-1.7-0.3-3.2-0.8-4.4-1.4c-1.2-0.6-2.2-1.5-2.9-2.8c-0.7-1.2-1.1-2.9-1.1-4.9c-0.1-2,0.2-4.6,0.8-7.8c0.6-3,1.2-5.9,1.9-8.8
			c0.6-2.9,1.5-6,2.5-9.3c-0.7-0.1-1.4-0.1-2.2-0.2c-0.7-0.1-1.5-0.2-2.2-0.3c-0.7-0.1-1.4-0.3-2.1-0.5c-0.7-0.2-1.4-0.4-2.1-0.6
			c-0.1,0.9-0.3,2.2-0.6,4c-0.3,1.8-0.7,4-1.3,6.9c-0.2,0.9-0.4,1.8-0.6,2.7c-0.2,0.9-0.4,1.8-0.6,2.7c-0.2,0.9-0.4,2-0.6,3.1
			c-0.2,1.1-0.5,2.3-0.8,3.7c-0.5,2.5-0.5,4.7,0,6.5C283.1,72.6,283.9,74.3,285.1,75.7z"/>
		<path class="st0" d="M319.9,86c0.4,0.2,0.8,0.3,1.2,0.5c0.4,0.2,0.8,0.3,1.1,0.5c0.4,0.2,0.7,0.4,1.1,0.6c1.2-1.4,2.4-2.8,3.7-4.2
			c1.3-1.4,2.6-2.8,4-4.2c0.9,0.3,1.7,0.7,2.6,1.1c0.8,0.4,1.7,0.7,2.5,1.1c1,0.5,2.1,0.9,3.1,1.4c1,0.5,2.1,1,3.1,1.5
			c-0.1,1.9-0.3,3.8-0.5,5.7c-0.2,1.9-0.4,3.8-0.6,5.6c0.7,0.2,1.4,0.5,2.1,0.8c0.7,0.3,1.4,0.6,2.1,0.9c0.7,0.3,1.4,0.6,2.1,0.9
			c0.7,0.3,1.4,0.7,2.2,1.1c-0.1-2.3-0.1-5.1,0-8.3c0.1-3.2,0.2-6.6,0.4-10.2c0.2-3.6,0.4-7.2,0.6-10.9c0.2-3.7,0.4-7.1,0.6-10.3
			c-0.4-0.1-0.7-0.2-1-0.2c-0.3-0.1-0.6-0.2-1-0.3c-0.3-0.1-0.6-0.3-0.9-0.5c-0.3-0.2-0.6-0.4-0.8-0.6c-1.5,1.5-3.2,3.2-5,4.9
			c-1.8,1.8-3.7,3.5-5.5,5.3c-1.9,1.8-3.7,3.6-5.6,5.3c-1.9,1.8-3.6,3.4-5.2,4.9c-1.6,1.5-3.1,2.9-4.4,4.1c-1.3,1.2-2.4,2.1-3.1,2.8
			C319.1,85.6,319.5,85.8,319.9,86z M338.4,72.1c1.6-1.6,3.2-3.1,5-4.7c-0.1,2.3-0.2,4.5-0.4,6.8c-0.2,2.2-0.3,4.5-0.5,6.8l-8.9-4
			C335.2,75.3,336.8,73.7,338.4,72.1z"/>
		<path class="st0" d="M358.2,105.3c0.7,0.5,1.5,1.1,2.6,1.8c1.1,0.8,2.6,1.8,4.3,3c2,1.4,3.6,2.5,4.7,3.3c1.1,0.8,2.1,1.5,2.9,2.1
			c0.1-0.2,0.2-0.5,0.3-0.7s0.4-0.7,0.7-1.1c0.3-0.5,0.6-0.8,0.8-1.1c0.2-0.2,0.5-0.5,0.7-0.8c-1.8-1-3.6-2-5.3-3.1
			c-1.7-1.1-3.4-2.2-5.1-3.3c0.8-1.2,1.7-2.5,2.7-4.1c1.1-1.6,2.2-3.2,3.3-4.8l4.1-6c1.7-2.4,3.2-4.6,4.6-6.4
			c1.4-1.8,2.8-3.7,4.2-5.5c-0.5-0.3-1.1-0.6-1.7-1c-0.6-0.4-1.3-0.8-2-1.3c-0.7-0.5-1.4-1-1.9-1.4c-0.6-0.4-1.1-0.9-1.5-1.3
			c-1.2,2-2.4,3.9-3.7,5.8c-1.2,1.9-2.7,4.1-4.4,6.5l-4.1,6c-1.7,2.4-3.2,4.6-4.6,6.4c-1.4,1.8-2.7,3.6-4.1,5.4
			c0.3,0.1,0.6,0.3,0.9,0.5C357.1,104.5,357.6,104.8,358.2,105.3z"/>
		<path class="st0" d="M379.5,121.6c0.5,0.4,1,0.8,1.5,1.3c0.5,0.5,1.1,1,1.8,1.6c0.7,0.6,1.2,1.1,1.8,1.6c0.5,0.5,1,1,1.4,1.4
			c1.4-1.7,2.8-3.4,4.3-5.2c1.5-1.7,3.3-3.7,5.3-5.8l4.9-5.3c2-2.2,3.8-4.1,5.4-5.7c1.6-1.6,3.2-3.3,4.9-4.9c-0.5-0.4-1-0.8-1.6-1.2
			c-0.6-0.4-1.2-1-1.8-1.6c-0.7-0.6-1.2-1.2-1.7-1.7c-0.5-0.5-0.9-1-1.3-1.5c-1.5,1.8-2.9,3.6-4.4,5.3c-1.5,1.7-3.3,3.7-5.3,5.8
			l-4.9,5.3c-2,2.2-3.8,4.1-5.4,5.7C382.7,118.5,381.1,120,379.5,121.6z"/>
		<path class="st0" d="M418.8,114.9c0.6,0.7,1.3,1.3,1.9,2c0.6,0.7,1.2,1.3,1.7,1.9c0.5,0.6,0.9,1.1,1.3,1.5
			c-0.3,0.3-0.7,0.7-1.4,1.3c-0.7,0.5-1.4,1.1-2.2,1.8l-10.4,8.4c-2.3,1.9-4.4,3.5-6.2,4.9c-1.8,1.4-3.6,2.7-5.4,4
			c0.4,0.4,0.9,0.9,1.3,1.5c0.4,0.6,0.9,1.2,1.5,1.9c0.6,0.7,1.1,1.3,1.5,1.9c0.4,0.6,0.8,1.1,1.2,1.6c1.6-1.5,3.3-3,5-4.5
			c1.7-1.5,3.8-3.2,6-5l10.4-8.4l2.2-1.8c0.3-0.3,0.6-0.5,0.9-0.7c0.3-0.2,0.5-0.3,0.6-0.4c0.3,0.4,0.7,0.9,1.2,1.6
			c0.5,0.6,0.9,1.3,1.5,2c0.5,0.7,1,1.4,1.5,2.2c0.5,0.7,0.9,1.4,1.3,2c0.3-0.3,0.5-0.6,0.8-0.9c0.3-0.3,0.6-0.6,0.9-0.8
			c0.3-0.2,0.6-0.5,1-0.7c0.3-0.2,0.7-0.4,1-0.6c-0.7-0.8-1.4-1.6-2-2.3c-0.6-0.7-1.2-1.4-1.9-2.2c-0.6-0.8-1.3-1.6-2.1-2.5
			c-0.8-0.9-1.7-2-2.7-3.3c-1-1.3-1.9-2.4-2.7-3.4c-0.7-0.9-1.4-1.8-2-2.6c-0.6-0.8-1.2-1.6-1.8-2.4c-0.6-0.8-1.2-1.7-2-2.6
			c-0.3,0.3-0.5,0.6-0.8,0.9c-0.3,0.3-0.6,0.6-0.9,0.8c-0.3,0.2-0.6,0.5-1,0.7c-0.3,0.2-0.7,0.4-1,0.6
			C417.5,113.6,418.1,114.2,418.8,114.9z"/>
		<path class="st0" d="M458,166.9c-0.2-0.3-0.5-0.7-0.7-1.1c-0.2-0.4-0.4-0.8-0.5-1.1c-0.1-0.4-0.3-0.8-0.4-1.1
			c-1.4,0.1-3,0.2-4.5,0.3c-1.6,0.1-3.1,0.2-4.7,0.3c-1.6,0.1-3.1,0.1-4.6,0.1c-1.5,0-2.8-0.1-4.1-0.2l-0.1-0.1
			c0.3-0.6,0.9-1.5,1.7-2.7c0.8-1.2,1.7-2.4,2.7-3.8c1-1.4,2-2.8,3.1-4.2c1-1.4,2-2.7,2.9-3.9c-0.5-0.7-0.9-1.4-1.3-2
			c-0.4-0.6-0.8-1.3-1.2-2.1c-0.4-0.7-0.7-1.4-1.1-2.1c-0.3-0.7-0.6-1.4-1-2.2c-0.5,0.7-1.2,1.9-2.2,3.5c-1,1.6-2.2,3.3-3.5,5.3
			c-1.3,1.9-2.6,3.9-4,6c-1.4,2.1-2.6,3.9-3.8,5.5c-0.7,0.4-1.4,0.8-2.1,1.2c-0.7,0.4-1.5,0.8-2.2,1.2c-1.5,0.8-3,1.5-4.6,2.2
			c-1.6,0.7-3.1,1.3-4.6,2c0.4,0.6,0.8,1.3,1.2,1.9c0.4,0.7,0.7,1.3,1.1,2c0.4,0.7,0.7,1.3,1.1,2c0.4,0.7,0.7,1.4,1,2
			c1.6-1.1,3.2-2.2,4.7-3c1.5-0.9,3.1-1.8,4.7-2.6c0.8-0.4,1.6-0.8,2.3-1.2c0.8-0.4,1.6-0.8,2.3-1.2c1.9,0,3.9-0.1,6.2-0.1
			c2.2,0,4.4,0,6.6,0c2.1,0,4.1,0,6,0.1c1.9,0,3.4,0.1,4.5,0.1C458.5,167.6,458.3,167.3,458,166.9z"/>
		<path class="st0" d="M190.4,430.6c-3.7,3-7.5,6-11.4,8.9c-3.9,3-7.7,5.7-11.5,8.4c0-2.1,0-4.4,0-6.8c0-2.4,0.1-4.8,0.1-7.2
			c0.1-2.5,0.1-4.9,0.2-7.4c0.1-2.5,0.2-4.9,0.3-7.3c-0.4-0.1-0.8-0.2-1.1-0.3c-0.3-0.1-0.7-0.2-1-0.4c-0.4-0.2-0.7-0.4-1-0.6
			c-0.3-0.2-0.6-0.4-0.9-0.7c-3.5,5.3-7.1,10.4-10.7,15.5c-3.6,5-7.3,10.1-11.1,15.1c0.4,0.1,0.8,0.3,1.2,0.5
			c0.4,0.2,0.7,0.4,1.1,0.6c0.4,0.2,0.7,0.4,1.1,0.6c0.4,0.2,0.8,0.4,1.1,0.7c2.1-3.5,4.2-6.9,6.3-10.4c2.1-3.5,4.3-6.9,6.7-10.3
			l0.1,0c0,4.6-0.1,9.2-0.2,13.6c-0.1,4.5-0.2,8.9-0.3,13.4c0.2,0,0.3,0.1,0.5,0.2c0.2,0.1,0.3,0.1,0.5,0.2c0.2,0.1,0.3,0.2,0.4,0.3
			c0.1,0.1,0.3,0.2,0.4,0.3c3.6-2.8,7.2-5.6,10.9-8.4c3.6-2.8,7.3-5.6,11.1-8.4l0.1,0c-1.5,4-3.1,8-4.7,12c-1.6,4-3.1,7.8-4.7,11.1
			c0.7,0.3,1.4,0.6,2.1,0.9c0.7,0.3,1.3,0.7,2,1c0.6,0.3,1.3,0.7,1.9,1c0.7,0.3,1.3,0.7,1.9,1.1c0.5-1.8,1.3-4,2.3-6.8
			c1-2.8,2.1-5.8,3.3-9c1.2-3.2,2.4-6.5,3.7-9.9c1.2-3.4,2.4-6.5,3.5-9.4c-0.9-0.2-1.6-0.5-2.1-0.8
			C191.8,431.6,191.1,431.2,190.4,430.6z"/>
		<path class="st0" d="M214.9,438.7c-1.6-0.4-3.1-0.8-4.6-1.3c-1.5-0.5-3.1-0.9-4.6-1.4c-0.5,2.3-1,4.6-1.5,6.8
			c-0.5,2.3-1.2,4.8-1.9,7.7l-1.9,7.1c-0.8,2.9-1.5,5.5-2.1,7.7c-0.6,2.2-1.3,4.4-2,6.5c0.3,0,0.6,0.1,1,0.2c0.4,0.1,1,0.2,1.8,0.4
			c0.8,0.2,1.8,0.5,3.1,0.8c1.3,0.3,3,0.8,5.2,1.3c2.4,0.6,4.3,1.1,5.7,1.5c1.4,0.4,2.5,0.7,3.5,1c0-0.2,0-0.5,0-0.8
			c0-0.3,0.1-0.8,0.3-1.3c0.1-0.6,0.3-1,0.4-1.3c0.1-0.3,0.3-0.6,0.4-1c-2.1-0.3-4.1-0.6-6.1-1c-2-0.4-4-0.9-6-1.4
			c0.4-2.1,1-4.3,1.5-6.6c0.3-1.1,0.6-2.2,0.9-3.3c0.3-1.1,0.6-2.2,0.9-3.3c3.9,1,7.8,2.2,11.7,3.6c0.1-0.6,0.1-1,0.2-1.3
			c0-0.3,0.1-0.6,0.1-0.9c0.1-0.3,0.2-0.7,0.3-1c0.1-0.3,0.3-0.7,0.6-1.3c-2-0.4-3.9-0.8-5.8-1.2c-1.8-0.4-3.9-0.9-6.2-1.4
			c0.5-1.9,1-3.8,1.5-5.7c0.5-1.9,1.1-3.8,1.7-5.6c0.4,0.1,1,0.3,1.9,0.6c0.9,0.3,1.9,0.6,3,1c1.1,0.4,2.3,0.7,3.4,1.1
			c1.2,0.4,2.3,0.7,3.3,1.1c0-0.4,0.1-0.8,0.1-1.1c0-0.3,0.1-0.8,0.3-1.3c0.2-0.9,0.5-1.6,0.8-2.1c-0.7-0.1-2.1-0.4-4.1-0.9
			C219.8,440,217.5,439.4,214.9,438.7z"/>
		<path class="st0" d="M272.2,465.4c-0.3-3.4-0.5-6.9-0.8-10.5c-0.3-3.6-0.5-6.9-0.8-10c-0.9,0.1-1.7,0.2-2.3,0.2
			c-0.6,0-1.4-0.1-2.3-0.4c-2.1,4.3-4.3,8.6-6.7,12.9c-2.3,4.3-4.6,8.5-7,12.4c-0.9-1.9-1.8-4-2.8-6.2c-1-2.2-1.9-4.4-2.9-6.6
			c-1-2.3-1.9-4.5-2.9-6.8c-1-2.3-1.9-4.5-2.8-6.7c-0.4,0.1-0.8,0.1-1.1,0.1c-0.4,0-0.7,0.1-1,0c-0.4,0-0.8-0.1-1.1-0.1
			c-0.3-0.1-0.7-0.1-1.1-0.2c-1,6.3-2.1,12.4-3.2,18.5c-1.1,6.1-2.4,12.2-3.8,18.3c0.4-0.1,0.9-0.1,1.3-0.1c0.4,0,0.8,0,1.3,0.1
			c0.4,0,0.8,0,1.2,0c0.4,0,0.9,0.1,1.3,0.2c0.5-4,0.9-8,1.4-12.1c0.5-4,1-8.1,1.8-12.2l0.1,0c1.9,4.2,3.7,8.4,5.5,12.5
			c1.8,4.1,3.5,8.2,5.3,12.3c0.2,0,0.4,0,0.5-0.1c0.2,0,0.3,0,0.5,0c0.2,0,0.4,0,0.5,0c0.2,0,0.3,0.1,0.5,0.1
			c2.1-4.1,4.2-8.1,6.4-12.1c2.1-4,4.3-8.1,6.6-12.3l0.1,0c0.3,4.3,0.5,8.6,0.7,12.9c0.2,4.3,0.4,8.4,0.4,12.1c0.8,0,1.5,0,2.3,0
			c0.8,0,1.5,0.1,2.2,0.1c0.7,0,1.4,0.1,2.2,0.1c0.7,0,1.5,0.1,2.2,0.2c-0.2-1.8-0.5-4.2-0.8-7.2C272.7,472,272.5,468.8,272.2,465.4
			z"/>
		<path class="st0" d="M311.2,460.7c-0.9-1-1.9-1.7-3-2.3c-1.1-0.5-2.3-0.8-3.4-1c-1.2-0.1-2.1-0.1-3,0l0-0.1
			c0.8-0.3,1.7-0.7,2.6-1.3c0.9-0.6,1.8-1.3,2.5-2.2c0.7-0.9,1.3-1.9,1.7-3c0.4-1.2,0.5-2.5,0.2-3.9c-0.3-1.4-0.8-2.6-1.5-3.6
			c-0.7-0.9-1.6-1.7-2.7-2.1c-1.1-0.5-2.3-0.7-3.7-0.8c-1.4-0.1-2.8,0-4.4,0.3c-1.5,0.3-3.1,0.6-4.8,1c-1.6,0.4-3.2,0.7-4.8,1
			c-0.9,0.2-1.7,0.3-2.4,0.4c-0.7,0.1-1.4,0.1-2,0.2c0.6,2.3,1.1,4.5,1.7,6.8c0.5,2.3,1,4.9,1.6,7.8l1.4,7.2c0.6,2.9,1,5.6,1.4,7.8
			c0.4,2.3,0.7,4.6,0.9,6.8c0.6-0.2,1.4-0.4,2.4-0.6c1-0.2,2-0.4,2.9-0.6c1.3-0.3,2.6-0.5,3.8-0.7c1.2-0.2,2.5-0.4,4-0.7
			c1.6-0.3,3.1-0.8,4.5-1.4c1.4-0.6,2.6-1.5,3.6-2.5c1-1.1,1.7-2.3,2.1-3.8c0.4-1.5,0.5-3.2,0.1-5.1
			C312.7,463,312.1,461.7,311.2,460.7z M293.4,455.1c-0.2-0.9-0.4-1.8-0.5-2.7c-0.2-0.9-0.4-2.1-0.6-3.4c-0.2-1.4-0.4-2.7-0.6-4
			c0.3-0.1,0.7-0.2,1-0.3c0.3-0.1,0.8-0.2,1.6-0.3c1.1-0.2,2-0.2,2.7,0c0.8,0.2,1.4,0.5,2,1c0.6,0.5,1,1.1,1.4,1.8
			c0.3,0.7,0.6,1.5,0.7,2.4c0.2,1.1,0.2,2.2,0,3.1c-0.2,0.9-0.5,1.7-1,2.4c-0.5,0.7-1,1.2-1.7,1.6c-0.7,0.4-1.4,0.7-2.1,0.8
			l-2.4,0.5C293.8,456.9,293.6,456,293.4,455.1z M304.8,469.7c-0.2,0.9-0.4,1.8-0.8,2.5c-0.4,0.7-0.9,1.3-1.6,1.8
			c-0.6,0.5-1.4,0.8-2.1,0.9c-0.6,0.1-1.1,0.2-1.5,0.3c-0.4,0.1-0.9,0.1-1.4,0.2c-0.1-0.5-0.2-1-0.4-1.7c-0.2-0.7-0.3-1.5-0.5-2.3
			c-0.2-0.8-0.3-1.7-0.5-2.6c-0.2-0.9-0.4-1.7-0.5-2.6c-0.2-1.1-0.4-2-0.5-2.8c-0.1-0.8-0.3-1.6-0.4-2.3c0.3-0.1,0.7-0.1,1-0.2
			c0.3-0.1,0.8-0.2,1.3-0.3c2.1-0.4,3.9-0.1,5.2,0.9c1.3,1,2.3,2.8,2.7,5.2C305,467.7,305,468.7,304.8,469.7z"/>
		<path class="st0" d="M347.8,461.2c-0.2-0.5-0.3-1-0.4-1.3c-0.1-0.3-0.2-0.7-0.2-1.1c-1.9,1-3.7,1.9-5.6,2.7
			c-1.9,0.8-3.8,1.6-5.7,2.3c-0.9-2-1.7-4.1-2.6-6.2c-0.4-1.1-0.8-2.2-1.2-3.2c-0.4-1.1-0.8-2.2-1.2-3.2c3.8-1.4,7.7-2.8,11.6-3.9
			c-0.3-0.5-0.5-0.9-0.6-1.2c-0.2-0.3-0.3-0.5-0.4-0.8c-0.1-0.3-0.2-0.7-0.3-1c-0.1-0.3-0.2-0.8-0.3-1.4c-1.9,0.8-3.7,1.6-5.4,2.4
			c-1.7,0.7-3.7,1.5-5.9,2.4c-0.7-1.8-1.4-3.7-2.1-5.5c-0.7-1.8-1.3-3.7-1.9-5.6c0.4-0.1,1-0.4,1.9-0.7c0.9-0.3,1.9-0.6,3-1
			c1.1-0.3,2.3-0.7,3.5-1.1c1.2-0.4,2.3-0.7,3.3-1c-0.2-0.3-0.4-0.7-0.5-1c-0.1-0.3-0.3-0.7-0.5-1.2c-0.3-0.9-0.5-1.6-0.6-2.2
			c-0.6,0.3-1.9,0.9-3.8,1.7c-1.9,0.8-4.1,1.7-6.6,2.6c-1.5,0.6-3,1.1-4.5,1.6c-1.5,0.5-3,1-4.5,1.6c1,2.1,1.9,4.3,2.8,6.4
			c0.9,2.1,1.9,4.6,2.9,7.4l2.6,6.9c1.1,2.8,2,5.3,2.7,7.5c0.8,2.2,1.5,4.4,2.2,6.5c0.3-0.1,0.6-0.3,1-0.5c0.4-0.2,0.9-0.4,1.7-0.7
			c0.8-0.3,1.8-0.7,3-1.1c1.3-0.5,2.9-1.1,5-1.9c2.3-0.9,4.1-1.6,5.5-2.1c1.3-0.5,2.5-0.9,3.4-1.2c-0.1-0.2-0.3-0.4-0.4-0.7
			C348.2,462.2,348,461.8,347.8,461.2z"/>
		<path class="st0" d="M367.3,432.4c2-2,3.1-4,3.5-6.2c0.4-2.2-0.1-4.4-1.5-6.6c-0.8-1.4-1.8-2.4-3-3.1c-1.1-0.7-2.4-1.1-3.7-1.2
			c-0.6,0-1.1,0-1.7,0c-0.6,0.1-1.2,0.2-1.9,0.5c-0.7,0.2-1.4,0.6-2.3,1c-0.9,0.4-1.9,1-3.1,1.7c-1.6,0.9-2.9,1.8-3.9,2.5
			c-1,0.7-1.9,1.3-2.8,1.8c-0.8,0.5-1.5,0.9-2.1,1.2c-0.6,0.3-1.2,0.6-1.8,0.9c1.3,1.9,2.6,3.9,3.9,5.8c1.3,2,2.7,4.2,4.2,6.8
			l3.8,6.3c1.5,2.6,2.9,4.9,4,6.9c1.1,2,2.2,4,3.2,6c0.5-0.4,1-0.8,1.7-1.1c0.6-0.4,1.3-0.8,2.1-1.2c0.8-0.5,1.5-0.9,2.1-1.2
			c0.6-0.4,1.2-0.7,1.8-0.9c-1.3-1.8-2.5-3.7-3.8-5.7c-1.3-2-2.7-4.2-4.2-6.8l-1.1-1.9l0.4-0.2l17,9.6c0.7-0.5,1.4-0.9,2.1-1.4
			c0.7-0.4,1.4-0.8,2.1-1.3c0.7-0.4,1.4-0.8,2.1-1.3c0.7-0.4,1.4-0.8,2.1-1.2c-3.2-1.5-6.5-3.1-9.7-4.7
			C373.5,435.8,370.3,434.2,367.3,432.4z M364.2,430.8c-0.4,1.7-1.7,3.2-3.7,4.5c-0.2,0.1-0.3,0.2-0.5,0.3c-0.2,0.1-0.4,0.2-0.6,0.2
			c-2.5-4.2-5-8.4-7.4-12.7c1.3-0.8,2.4-1.4,3.4-1.8c1-0.4,1.9-0.6,2.7-0.5c0.8,0.1,1.6,0.4,2.4,1.1c0.8,0.6,1.5,1.6,2.4,3
			C364.2,427.1,364.7,429.1,364.2,430.8z"/>
	</g>
</g>
</svg>
