<?xml version="1.0" encoding="utf-8"?>
<!-- Generator: Adobe Illustrator 23.0.3, SVG Export Plug-In . SVG Version: 6.00 Build 0)  -->
<svg version="1.1" id="Layer_1" xmlns="http://www.w3.org/2000/svg" xmlns:xlink="http://www.w3.org/1999/xlink" x="0px" y="0px"
	 viewBox="0 0 65.3 106.5" style="enable-background:new 0 0 65.3 106.5;" xml:space="preserve">
<style type="text/css">
	.st0{fill:#045B79;}
</style>
<g>
	<path class="st0" d="M20.6,52.4l9.8,7.1c1.7,1.2,1.8,2.4,1,3.7l1.4,1.1l5-6.9c3.1-4.3,2.8-10.1-1.8-13.4l-9.9-7.2
		c-1.2-0.9-1.3-2.1-0.7-3.4l-1.4-1l-5.3,7.3C16.1,43.3,16.9,49.8,20.6,52.4z"/>
	<path class="st0" d="M27.2,29.9l13.6,10c2.8,2,3.1,7.2,1.1,9.8l1.2,0.9l9.4-13.2c4.2-5.9,4-14.7-2.6-19.5L35.2,7.3
		c-2-1.5-3-4-1.4-6.4L32.5,0l-8.3,11.4C20.5,16.8,21.9,26,27.2,29.9z"/>
	<path class="st0" d="M53.1,66.8c-13.6,0-27.2,0-40.8,0l-1.4,4.9h11l2,6.6c6,0,11.9,0,17.9,0l2-6.6h10.9L53.1,66.8z"/>
	<path class="st0" d="M15.9,93.9c1.9-1.1,3.1-2.8,3.1-5.1c0-4.5-3.7-6.4-7.8-6.4H0v24.1h11.2c4.8,0,9.9-2.1,9.1-7.6
		C19.8,95.8,18.5,95,15.9,93.9z M5.1,87.1H11c3.7,0,3.8,5.1,0.2,5.1H5.1C5.1,92.2,5.1,87.1,5.1,87.1z M11.6,102H5v-5.5h6.6
		C16.5,96.5,16.2,102,11.6,102z"/>
	<path class="st0" d="M38.4,93.9c1.9-1.1,3.1-2.8,3.1-5.1c0-4.5-3.7-6.4-7.8-6.4H22.4v24.1h11.3c4.8,0,9.9-2.1,9.1-7.6
		C42.2,95.8,41,95,38.4,93.9z M27.6,87.1h5.9c3.7,0,3.8,5.1,0.2,5.1h-6.1C27.6,92.2,27.6,87.1,27.6,87.1z M34.1,102h-6.6v-5.5h6.6
		C38.9,96.5,38.7,102,34.1,102z"/>
	<path class="st0" d="M60.9,93.9c1.9-1.1,3.1-2.8,3.1-5.1c0-4.5-3.7-6.4-7.8-6.4H44.9v24.1h11.2c4.8,0,9.9-2.1,9.1-7.6
		C64.7,95.8,63.5,95,60.9,93.9z M50,87.1h5.9c3.7,0,3.8,5.1,0.2,5.1H50V87.1z M56.6,102H50v-5.5h6.6C61.4,96.5,61.1,102,56.6,102z"
		/>
</g>
</svg>
